<svg id="visual" viewBox="0 0 900 600" width="900" height="600" xmlns="http://www.w3.org/2000/svg" xmlns:xlink="http://www.w3.org/1999/xlink" version="1.1"><g transform="translate(472.2421716197399 322.24820977669987)"><path d="M199.6 -241.7C245.4 -199.5 260.1 -124 271.3 -49.5C282.5 25 290.2 98.5 261 152.3C231.9 206.1 165.9 240.3 102.9 248.3C39.9 256.3 -20.2 238.3 -76.6 215.6C-133.1 192.8 -186.1 165.4 -234.3 117.9C-282.4 70.3 -325.9 2.6 -325.8 -67.8C-325.7 -138.1 -282.1 -211.2 -220.5 -250.7C-159 -290.1 -79.5 -296.1 -1.3 -294.5C76.9 -293 153.8 -284 199.6 -241.7" fill="none" stroke="#E04C16" stroke-width="6"></path></g></svg>