<svg id="visual" viewBox="0 0 900 600" width="900" height="600" xmlns="http://www.w3.org/2000/svg" xmlns:xlink="http://www.w3.org/1999/xlink" version="1.1"><g transform="translate(446.0921712016168 295.6094212412279)"><path d="M99.8 -138.9C140.9 -107.6 193.6 -93.8 225.8 -58.3C258.1 -22.9 269.8 34.3 256.7 86.2C243.7 138.1 205.9 184.7 159 209.3C112.1 233.9 56 236.5 2 233.8C-52.1 231.1 -104.2 223.1 -141.8 195.5C-179.4 167.9 -202.4 120.6 -223.9 69.2C-245.4 17.9 -265.3 -37.4 -246.9 -75.9C-228.4 -114.4 -171.5 -136.1 -124 -165.3C-76.4 -194.5 -38.2 -231.3 -4.4 -225.2C29.4 -219.1 58.8 -170.2 99.8 -138.9" fill="#007bff"></path></g></svg>