<svg id="visual" viewBox="0 0 900 600" width="900" height="600" xmlns="http://www.w3.org/2000/svg" xmlns:xlink="http://www.w3.org/1999/xlink" version="1.1"><g transform="translate(453.46478279156696 331.5748173764748)"><path d="M175.6 -202.7C234.7 -159.7 294.6 -111.1 302.4 -55.1C310.3 1 266 64.5 221.8 115.8C177.6 167.1 133.4 206.2 85.8 214.2C38.1 222.2 -13 199.2 -82 189.6C-151 180 -237.9 183.7 -279.4 145.2C-320.9 106.6 -317 25.7 -288.6 -36.2C-260.2 -98.1 -207.2 -141 -155 -185.1C-102.8 -229.2 -51.4 -274.6 3.4 -278.7C58.3 -282.8 116.6 -245.6 175.6 -202.7" fill="#ff8300"></path></g></svg>